# xmcd
#
# Track frame offsets:
#   150
#   14364
#   28425
#   39570
#   55435
#   73549
#   89048
#   107072
#   124138
#   142129
#   157240
#   170421
#   184603
#   197363
#   211624
#   226321
#   241591
#   254813
#   267112
#
# Disc length: 3776 seconds
#
# Revision: 0
# Processed by: cddbd v1.5.2PL0 Copyright (c) Steve Scherf et al.
# Submitted via: uFREEDB ActiveX Control 1.5
#
DISCID=160ebe13
DTITLE=Guilerme e Santiago - E dai - Ao vivo
DYEAR=2010
DGENRE=Sertanejo
TTITLE0=Mete sua boca
TTITLE1=Ta se achando
TTITLE2=Solteiro sim sozinho nunca
TTITLE3=Noites
TTITLE4=Que vontada que da
TTITLE5=Safada cachorra bandida
TTITLE6=Me leva
TTITLE7=To pra la de Bagda
TTITLE8=Tudo tem um porque
TTITLE9=O extase do amor
TTITLE10=E dai
TTITLE11=Deixa de orgulho
TTITLE12=O amor que sonhei
TTITLE13=Batidao de Goias
TTITLE14=Chovendo estrelas
TTITLE15=Alo meu povo
TTITLE16=E pra sempre te amar
TTITLE17=Do amor da cidade
TTITLE18=O amor e assim
EXTD=
EXTT0=
EXTT1=
EXTT2=
EXTT3=
EXTT4=
EXTT5=
EXTT6=
EXTT7=
EXTT8=
EXTT9=
EXTT10=
EXTT11=
EXTT12=
EXTT13=
EXTT14=
EXTT15=
EXTT16=
EXTT17=
EXTT18=
PLAYORDER=
